<?xml version="1.0" encoding="UTF-8" standalone="no"?>
<!DOCTYPE svg PUBLIC "-//W3C//DTD SVG 1.1//EN" "http://www.w3.org/Graphics/SVG/1.1/DTD/svg11.dtd">
<svg width="100%" height="100%" viewBox="0 0 3544 3544" version="1.1" xmlns="http://www.w3.org/2000/svg" xmlns:xlink="http://www.w3.org/1999/xlink" xml:space="preserve" xmlns:serif="http://www.serif.com/" style="fill-rule:evenodd;clip-rule:evenodd;stroke-linejoin:round;stroke-miterlimit:2;">
    <g>
        <g transform="matrix(1.08072,0,0,1.06708,-286.003,-237.673)">
            <rect x="264.642" y="222.733" width="3278.66" height="3320.57" style="fill:rgb(232,229,226);"/>
        </g>
        <g transform="matrix(1,0,0,1,22,22)">
            <g transform="matrix(352.614,0,-58.8284,408.597,863.588,2214.16)">
                <path d="M0.097,0.002L0.076,-0.716L0.161,-0.713L0.563,-0.116L0.549,-0.716L0.64,-0.716L0.64,0L0.557,0.001L0.154,-0.59L0.167,0L0.097,0.002Z" style="fill:rgb(180,178,176);fill-rule:nonzero;"/>
            </g>
            <g transform="matrix(307.494,0,-58.8284,408.597,1131.87,2214.16)">
                <path d="M-0.027,0L0.248,-0.716L0.375,-0.716L0.668,0L0.585,0.001L0.512,-0.182L0.137,-0.184L0.074,0.001L-0.027,0ZM0.158,-0.249L0.483,-0.24L0.383,-0.498C0.36,-0.558 0.302,-0.603 0.291,-0.642C0.282,-0.596 0.158,-0.249 0.158,-0.249Z" style="fill:rgb(180,178,176);fill-rule:nonzero;"/>
            </g>
            <g transform="matrix(307.494,0,-58.8284,408.597,1588.94,2214.16)">
                <path d="M-0.027,0L0.248,-0.716L0.375,-0.716L0.668,0L0.585,0.001L0.512,-0.182L0.137,-0.184L0.074,0.001L-0.027,0ZM0.158,-0.249L0.483,-0.24L0.383,-0.498C0.36,-0.558 0.302,-0.603 0.291,-0.642C0.282,-0.596 0.158,-0.249 0.158,-0.249Z" style="fill:rgb(180,178,176);fill-rule:nonzero;"/>
            </g>
            <g transform="matrix(307.494,0,-58.8284,408.597,1593.9,2213.57)">
                <path d="M-0.001,0L0.273,-0.716L0.375,-0.716L0.668,0L0.585,0.003L0.512,-0.181L0.148,-0.184L0.088,0.001L-0.001,0ZM0.178,-0.234L0.484,-0.236L0.383,-0.498C0.36,-0.558 0.333,-0.602 0.322,-0.641C0.313,-0.595 0.286,-0.55 0.27,-0.505L0.178,-0.234Z" style="fill:rgb(180,178,176);fill-rule:nonzero;"/>
            </g>
            <g transform="matrix(307.494,0,-58.8284,408.597,1887.48,2214.16)">
                <path d="M0.284,-0.003L0.283,-0.654L0.023,-0.651L0.023,-0.716L0.591,-0.716L0.59,-0.651L0.353,-0.651L0.354,0L0.284,-0.003Z" style="fill:rgb(180,178,176);fill-rule:nonzero;"/>
            </g>
            <g transform="matrix(307.494,0,-58.8284,408.597,1877.07,2214.16)">
                <path d="M0.284,-0.003L0.283,-0.654L0.023,-0.651L0.023,-0.716L0.591,-0.716L0.59,-0.651L0.353,-0.651L0.354,0L0.284,-0.003Z" style="fill:rgb(180,178,176);fill-rule:nonzero;"/>
            </g>
            <g transform="matrix(325.927,0,-58.8284,408.597,2085.48,2214.16)">
                <path d="M0.097,0.009L0.079,-0.716L0.597,-0.716L0.59,-0.656L0.153,-0.651L0.164,-0.387L0.529,-0.387L0.53,-0.332L0.165,-0.328L0.176,-0.038L0.603,-0.042L0.606,0.009L0.097,0.009Z" style="fill:rgb(180,178,176);fill-rule:nonzero;"/>
            </g>
            <g transform="matrix(325.927,0,-58.8284,408.597,2085.48,2211.01)">
                <path d="M0.097,0.009L0.079,-0.716L0.597,-0.716L0.59,-0.656L0.153,-0.651L0.164,-0.387L0.529,-0.387L0.53,-0.332L0.165,-0.328L0.176,-0.038L0.603,-0.042L0.606,0.009L0.097,0.009Z" style="fill:rgb(180,178,176);fill-rule:nonzero;"/>
            </g>
            <g transform="matrix(325.927,0,-58.8284,408.597,2296.28,2214.16)">
                <path d="M0.571,-0.208L0.661,-0.212C0.642,-0.126 0.627,-0.09 0.575,-0.049C0.524,-0.008 0.461,0.012 0.386,0.012C0.309,0.012 0.246,-0.003 0.198,-0.035C0.15,-0.066 0.113,-0.112 0.088,-0.171C0.062,-0.231 0.05,-0.295 0.05,-0.363C0.05,-0.438 0.064,-0.503 0.093,-0.558C0.121,-0.614 0.162,-0.656 0.214,-0.685C0.267,-0.714 0.325,-0.728 0.388,-0.728C0.459,-0.728 0.524,-0.713 0.568,-0.673C0.643,-0.606 0.633,-0.591 0.654,-0.458L0.571,-0.457C0.554,-0.509 0.555,-0.578 0.505,-0.611C0.472,-0.633 0.434,-0.647 0.386,-0.647C0.331,-0.647 0.285,-0.634 0.248,-0.607C0.211,-0.581 0.185,-0.546 0.17,-0.501C0.155,-0.457 0.147,-0.411 0.147,-0.364C0.147,-0.303 0.156,-0.25 0.174,-0.204C0.192,-0.159 0.219,-0.125 0.257,-0.103C0.294,-0.08 0.335,-0.069 0.378,-0.069C0.431,-0.069 0.476,-0.084 0.513,-0.115C0.55,-0.145 0.558,-0.147 0.571,-0.208Z" style="fill:rgb(180,178,176);fill-rule:nonzero;"/>
            </g>
            <g transform="matrix(325.927,0,-58.8284,408.597,2287.24,2214.16)">
                <path d="M0.571,-0.208L0.661,-0.212C0.642,-0.126 0.627,-0.09 0.575,-0.049C0.524,-0.008 0.461,0.012 0.386,0.012C0.309,0.012 0.246,-0.003 0.198,-0.035C0.15,-0.066 0.113,-0.112 0.088,-0.171C0.062,-0.231 0.05,-0.295 0.05,-0.363C0.05,-0.438 0.064,-0.503 0.093,-0.558C0.121,-0.614 0.162,-0.656 0.214,-0.685C0.267,-0.714 0.325,-0.728 0.388,-0.728C0.459,-0.728 0.524,-0.713 0.568,-0.673C0.643,-0.606 0.633,-0.591 0.654,-0.458L0.571,-0.457C0.554,-0.509 0.555,-0.578 0.505,-0.611C0.472,-0.633 0.434,-0.647 0.386,-0.647C0.331,-0.647 0.285,-0.634 0.248,-0.607C0.211,-0.581 0.185,-0.546 0.17,-0.501C0.155,-0.457 0.147,-0.411 0.147,-0.364C0.147,-0.303 0.156,-0.25 0.174,-0.204C0.192,-0.159 0.219,-0.125 0.257,-0.103C0.294,-0.08 0.335,-0.069 0.378,-0.069C0.431,-0.069 0.476,-0.084 0.513,-0.115C0.55,-0.145 0.558,-0.147 0.571,-0.208Z" style="fill:rgb(180,178,176);fill-rule:nonzero;"/>
            </g>
            <g transform="matrix(325.927,0,-58.8284,408.597,2530.47,2214.16)">
                <path d="M0.08,0L0.08,-0.716L0.155,-0.716L0.16,-0.391L0.571,-0.391L0.565,-0.716L0.642,-0.716L0.642,0L0.565,0L0.565,-0.337L0.155,-0.337L0.155,0L0.08,0Z" style="fill:rgb(180,178,176);fill-rule:nonzero;"/>
            </g>
            <g transform="matrix(325.927,0,-58.8284,408.597,2524.07,2214.16)">
                <path d="M0.08,0L0.08,-0.716L0.155,-0.716L0.16,-0.391L0.571,-0.391L0.565,-0.716L0.642,-0.716L0.642,0L0.565,0L0.565,-0.337L0.155,-0.337L0.155,0L0.08,0Z" style="fill:rgb(180,178,176);fill-rule:nonzero;"/>
            </g>
            <g transform="matrix(307.494,0,-58.8284,408.597,1360.29,2214.16)">
                <path d="M0.282,0L0.004,-0.716L0.081,-0.715C0.081,-0.715 0.317,-0.103 0.331,-0.078C0.338,-0.075 0.298,-0.076 0.305,-0.078C0.312,-0.096 0.55,-0.717 0.55,-0.717L0.659,-0.716L0.379,0L0.282,0Z" style="fill:rgb(180,178,176);fill-rule:nonzero;"/>
            </g>
        </g>
        <g>
            <g transform="matrix(352.614,0,-58.8284,408.597,863.588,2214.16)">
                <path d="M0.097,0.002L0.076,-0.716L0.161,-0.713L0.576,-0.105L0.549,-0.716L0.64,-0.716L0.64,0L0.557,0.001L0.154,-0.59L0.167,0L0.097,0.002Z" style="fill:rgb(101,100,99);fill-rule:nonzero;"/>
            </g>
            <g transform="matrix(307.494,0,-58.8284,408.597,1131.87,2214.16)">
                <path d="M-0.001,0L0.273,-0.716L0.375,-0.716L0.668,0L0.585,0.001L0.512,-0.182L0.151,-0.184L0.088,0.001L-0.001,0ZM0.178,-0.234L0.489,-0.236L0.383,-0.498C0.36,-0.558 0.333,-0.602 0.322,-0.641C0.313,-0.595 0.286,-0.55 0.27,-0.505L0.178,-0.234Z" style="fill:rgb(101,100,99);fill-rule:nonzero;"/>
            </g>
            <g transform="matrix(307.494,0,-58.8284,408.597,1593.9,2213.57)">
                <path d="M-0.001,0L0.273,-0.716L0.375,-0.716L0.668,0L0.585,0.003L0.512,-0.181L0.148,-0.184L0.088,0.001L-0.001,0ZM0.178,-0.234L0.484,-0.236L0.383,-0.498C0.36,-0.558 0.333,-0.602 0.322,-0.641C0.313,-0.595 0.286,-0.55 0.27,-0.505L0.178,-0.234Z" style="fill:rgb(101,100,99);fill-rule:nonzero;"/>
            </g>
            <g transform="matrix(307.494,0,-58.8284,408.597,1887.48,2214.16)">
                <path d="M0.284,-0.003L0.283,-0.654L0.023,-0.651L0.023,-0.716L0.591,-0.716L0.59,-0.651L0.353,-0.651L0.354,0L0.284,-0.003Z" style="fill:rgb(101,100,99);fill-rule:nonzero;"/>
            </g>
            <g transform="matrix(325.927,0,-58.8284,408.597,2085.48,2214.16)">
                <path d="M0.097,0.009L0.079,-0.716L0.597,-0.716L0.59,-0.656L0.153,-0.651L0.164,-0.387L0.529,-0.387L0.53,-0.332L0.165,-0.328L0.176,-0.038L0.603,-0.042L0.606,0.009L0.097,0.009Z" style="fill:rgb(101,100,99);fill-rule:nonzero;"/>
            </g>
            <g transform="matrix(325.927,0,-58.8284,408.597,2296.28,2214.16)">
                <path d="M0.578,-0.21L0.661,-0.212C0.643,-0.098 0.627,-0.09 0.575,-0.049C0.524,-0.008 0.461,0.012 0.386,0.012C0.309,0.012 0.246,-0.003 0.198,-0.035C0.15,-0.066 0.113,-0.112 0.088,-0.171C0.062,-0.231 0.05,-0.295 0.05,-0.363C0.05,-0.438 0.064,-0.503 0.093,-0.558C0.121,-0.614 0.162,-0.656 0.214,-0.685C0.267,-0.714 0.325,-0.728 0.388,-0.728C0.459,-0.728 0.524,-0.713 0.568,-0.673C0.643,-0.606 0.633,-0.591 0.654,-0.458L0.571,-0.457C0.554,-0.509 0.555,-0.578 0.505,-0.611C0.472,-0.633 0.434,-0.647 0.386,-0.647C0.331,-0.647 0.285,-0.634 0.248,-0.607C0.211,-0.581 0.185,-0.546 0.17,-0.501C0.155,-0.457 0.147,-0.411 0.147,-0.364C0.147,-0.303 0.156,-0.25 0.174,-0.204C0.192,-0.159 0.219,-0.125 0.257,-0.103C0.294,-0.08 0.335,-0.069 0.378,-0.069C0.431,-0.069 0.482,-0.079 0.519,-0.109C0.557,-0.139 0.566,-0.148 0.578,-0.21Z" style="fill:rgb(101,100,99);fill-rule:nonzero;"/>
            </g>
            <g transform="matrix(325.927,0,-58.8284,408.597,2530.47,2214.16)">
                <path d="M0.08,0L0.08,-0.716L0.155,-0.716L0.16,-0.391L0.571,-0.391L0.565,-0.716L0.642,-0.716L0.642,0L0.565,0L0.565,-0.337L0.155,-0.337L0.155,0L0.08,0Z" style="fill:rgb(101,100,99);fill-rule:nonzero;"/>
            </g>
            <g transform="matrix(307.494,0,-58.8284,408.597,1360.29,2214.16)">
                <path d="M0.282,0L0.004,-0.716L0.081,-0.715C0.081,-0.715 0.317,-0.103 0.331,-0.078C0.338,-0.075 0.344,-0.075 0.35,-0.077C0.365,-0.115 0.579,-0.717 0.579,-0.717L0.659,-0.716L0.379,0L0.282,0Z" style="fill:rgb(101,100,99);fill-rule:nonzero;"/>
            </g>
        </g>
        <g transform="matrix(2.90894,0,0,2.90894,-1171.9,-4778.13)">
            <g transform="matrix(352.614,0,-58.8284,408.597,885.588,2236.16)">
                <path d="M0.097,0.002L0.076,-0.716L0.161,-0.713L0.563,-0.116L0.549,-0.716L0.64,-0.716L0.64,0L0.557,0.001L0.154,-0.59L0.167,0L0.097,0.002Z" style="fill:rgb(176,192,213);fill-rule:nonzero;"/>
            </g>
            <g transform="matrix(352.614,0,-58.8284,408.597,863.588,2214.16)">
                <path d="M0.097,0.002L0.076,-0.716L0.161,-0.713L0.576,-0.105L0.549,-0.716L0.64,-0.716L0.64,0L0.557,0.001L0.154,-0.59L0.167,0L0.097,0.002Z" style="fill:rgb(92,135,194);fill-rule:nonzero;"/>
            </g>
        </g>
        <g transform="matrix(0.833728,0,0,0.879061,210.506,106.946)">
            <text x="1200.51px" y="2721.39px" style="font-family:'ArialMT', 'Arial', sans-serif;font-size:121.038px;fill:rgb(101,100,99);">H<tspan x="1300.02px 1392.86px 1492.37px 1591.88px 1704.81px 1797.65px 1897.16px 1990px 2035.73px 2162.07px 2207.81px 2293.85px 2393.36px 2439.09px 2518.51px 2624.76px 2717.6px " y="2721.39px 2721.39px 2721.39px 2721.39px 2721.39px 2721.39px 2721.39px 2721.39px 2721.39px 2721.39px 2721.39px 2721.39px 2721.39px 2721.39px 2721.39px 2721.39px 2721.39px ">ANDMADE WITH LOVE</tspan></text>
        </g>
    </g>
</svg>
